<svg width="175" height="50" viewBox="0 0 175 50" fill="none" xmlns="http://www.w3.org/2000/svg">
<g clip-path="url(#clip0_188_7817)">
<path d="M33.5193 0.0727539V5.35331V9.40689V14.6874V18.7774V23.9989C31.1289 23.6762 29.443 21.7948 29.4157 19.2409C29.3657 14.4011 29.3702 9.56139 29.4157 4.72164C29.4384 2.29495 31.2016 0.381771 33.5193 0.0727539Z" fill="#3E2C80"/>
<path d="M53.4282 5.35324H34.6963V0.0272439C41.1856 0.00906645 53.4418 0.0272439 53.4418 0.0272439C53.4418 1.54506 53.4282 5.35324 53.4282 5.35324Z" fill="#3E2C80"/>
<path d="M53.4418 14.6874H34.7008V9.40229C40.5494 9.3932 47.8022 9.39774 53.4418 9.39774V14.6874Z" fill="#3E2C80"/>
<path d="M53.4463 24.0625C53.4463 24.0625 41.0993 24.067 34.6963 24.0488V18.7728H53.4009L53.4463 24.0625Z" fill="#3E2C80"/>
<path d="M151.082 0.0681152V5.34867H151.068V9.40225H151.082V14.6828H151.068V18.7727H151.082V23.9988C148.687 23.6761 146.992 21.7947 146.965 19.2363C146.915 14.3965 146.919 9.55676 146.965 4.717C146.988 2.28577 148.755 0.372588 151.082 0.0681152Z" fill="#3E2C80"/>
<path d="M170.982 5.34873H152.264V0.0227273C158.757 0.00454984 170.995 0.0227273 170.995 0.0227273C170.995 1.54055 170.982 5.34873 170.982 5.34873Z" fill="#3E2C80"/>
<path d="M170.995 14.6829H152.264V9.39777C158.108 9.38868 165.356 9.39323 170.995 9.39323V14.6829Z" fill="#3E2C80"/>
<path d="M171 24.0625C171 24.0625 158.671 24.067 152.264 24.0488V18.7728H170.955L171 24.0625Z" fill="#3E2C80"/>
<path d="M141.68 5.06691C141.68 4.87151 141.671 4.6761 141.657 4.48069C141.453 1.91312 139.398 0.0181219 136.813 0.0181219C133.136 0.0181219 127.138 0.0181219 122.821 0.0090332V5.35321C127.26 5.3623 133.473 5.36684 137.553 5.35321V11.07C137.726 17.9048 133.627 18.7136 133.627 18.7136H122.821V24.076C125.279 24.0805 128.256 24.076 130.923 24.0578C138.767 23.9942 141.598 18.3001 141.643 13.3649C141.662 11.12 141.68 7.68901 141.68 5.06691ZM117.576 24.0578C117.576 24.0578 119.249 24.0669 121.639 24.0715V0.0090332C119.299 0.0090332 117.672 0.0090332 117.585 0.0090332C117.585 0.0090332 117.59 16.3233 117.576 24.0578Z" fill="#3E2C80"/>
<path d="M112.291 4.96245C112.291 4.76704 112.282 4.57163 112.269 4.37623C112.232 3.89452 112.128 3.44009 111.969 3.022L108.183 6.16671V18.7182H93.0596L89.106 21.9993C89.974 23.2444 91.3963 24.0761 93.0096 24.0761C97.3586 24.0761 103.634 24.0715 107.415 24.0624C108.919 24.0624 110.205 23.3762 111.183 22.2129C111.978 21.2722 112.3 20.1679 112.296 18.9455C112.287 14.2875 112.291 9.62497 112.291 4.96699V4.96245ZM92.2234 5.35326H107.311L111.401 1.95862C110.537 0.745276 109.106 0.00454437 107.447 0H92.9914C90.3648 0 88.2107 2.04042 88.2062 4.66707C88.2062 8.61612 88.1971 14.3375 88.1926 19.1272C88.1926 19.7589 88.3107 20.3679 88.5334 20.9359L92.2189 17.8775V5.35326H92.2234Z" fill="#3E2C80"/>
<path d="M16.0598 0.0275879L13.9194 0.041221V7.41673L17.7867 16.0419C16.8687 16.0419 15.4009 16.0419 13.9194 16.0419V21.4043C16.3506 21.4134 18.7137 21.4134 20.177 21.4043L21.3085 24.0718C21.3085 24.0718 26.4573 24.0582 26.68 24.0446C26.5891 23.8128 16.0598 0.0275879 16.0598 0.0275879ZM0 24.0673H5.35781L6.53026 21.377C7.989 21.3861 10.3293 21.3952 12.7424 21.3997V16.0419C10.6974 16.0419 8.92059 16.0419 8.92059 16.0419L12.7424 7.4849V0.0503097L10.6656 0.0639428C10.6656 0.0639428 0.113609 23.7265 0 24.0673Z" fill="#3E2C80"/>
<path d="M62.9486 0.0454102V24.0033C60.4946 23.6943 58.7678 21.7629 58.7496 19.1681C58.7178 14.3783 58.7223 9.58858 58.7496 4.79427C58.7632 2.31759 60.5628 0.331705 62.9486 0.0454102Z" fill="#3E2C80"/>
<path d="M82.8438 5.34867L64.1255 5.34412V0.0090332H82.8438V5.34867Z" fill="#3E2C80"/>
<path d="M82.8529 24.0624C76.7725 24.0534 70.2286 24.067 64.1255 24.0488V18.7773C67.6883 18.7773 77.9313 18.7773 82.8393 18.7773L82.8529 24.067V24.0624Z" fill="#3E2C80"/>
</g>
<path d="M1.602 40.076H0.819V33.776H1.602V40.076ZM4.02778 34.919V40.076H3.24478V33.776H4.02778L8.45578 38.942V33.776H9.23878V40.076H8.45578L4.02778 34.919ZM10.6125 36.917C10.6125 34.676 11.5845 33.713 13.8255 33.713C15.6345 33.713 16.5975 34.325 16.9125 35.72H16.0935C15.7965 34.874 15.0405 34.451 13.8255 34.451C12.1245 34.451 11.3955 35.198 11.3955 36.926C11.3955 38.663 12.1335 39.401 13.9965 39.401C15.4725 39.401 16.1295 38.951 16.1295 37.916V37.466H13.7895V36.773H16.9305V37.916C16.9305 39.464 16.0305 40.139 13.9875 40.139C12.7905 40.139 11.9265 39.887 11.4045 39.374C10.8735 38.87 10.6125 38.051 10.6125 36.917ZM23.4924 39.338V40.076H18.3444V33.776H23.4924V34.514H19.1274V36.575H23.0424V37.277H19.1274V39.338H23.4924ZM25.7104 34.919V40.076H24.9274V33.776H25.7104L30.1384 38.942V33.776H30.9214V40.076H30.1384L25.7104 34.919ZM33.3481 40.076H32.5651V33.776H33.3481V40.076ZM40.1389 39.338V40.076H34.9909V33.776H40.1389V34.514H35.7739V36.575H39.6889V37.277H35.7739V39.338H40.1389ZM42.3569 37.583V40.076H41.5739V33.776H44.8139C46.2989 33.776 46.9469 34.316 46.9469 35.567C46.9469 36.404 46.6409 36.953 46.0199 37.196C46.6049 37.403 46.9019 37.871 46.9019 38.6V40.076H46.1189V38.627C46.1189 37.898 45.7229 37.583 44.8139 37.583H42.3569ZM42.3569 34.514V36.845H44.7689C45.7409 36.845 46.1639 36.494 46.1639 35.675C46.1639 34.874 45.7409 34.514 44.7689 34.514H42.3569ZM49.2739 40.076H48.4909V33.776H49.2739V40.076ZM51.1597 40.076H50.3227L53.2837 33.776H54.1927L57.1447 40.076H56.3077L55.6417 38.636L51.8347 38.645L51.1597 40.076ZM55.2907 37.898L53.7427 34.577L52.1857 37.898H55.2907ZM60.2493 38.672V37.97L63.6873 33.776H64.8393V37.97H66.0183V38.672H64.8393V40.076H64.0923V38.672H60.2493ZM64.0923 34.325L61.1403 37.97H64.0923V34.325ZM66.9006 40.004C66.8106 39.923 66.7656 39.779 66.7656 39.572C66.7656 39.365 66.8106 39.221 66.9006 39.131C66.9906 39.041 67.1346 38.996 67.3416 38.996C67.5486 38.996 67.6926 39.041 67.7826 39.131C67.8726 39.221 67.9176 39.365 67.9176 39.572C67.9176 39.779 67.8726 39.923 67.7826 40.004C67.6926 40.094 67.5486 40.139 67.3416 40.139C67.1346 40.139 66.9906 40.094 66.9006 40.004ZM69.664 34.469C70.105 33.965 70.807 33.713 71.77 33.713C72.733 33.713 73.435 33.965 73.876 34.469C74.317 34.982 74.533 35.801 74.533 36.926C74.533 38.051 74.317 38.87 73.876 39.374C73.435 39.887 72.733 40.139 71.77 40.139C70.807 40.139 70.105 39.887 69.664 39.374C69.223 38.87 69.007 38.051 69.007 36.926C69.007 35.801 69.223 34.982 69.664 34.469ZM69.745 36.926C69.745 38.681 70.366 39.446 71.77 39.446C73.183 39.446 73.795 38.69 73.795 36.926C73.795 35.162 73.183 34.406 71.77 34.406C70.366 34.406 69.745 35.162 69.745 36.926ZM79.0933 36.836C78.4723 36.602 78.1573 36.116 78.1573 35.378C78.1573 34.199 78.9313 33.713 80.8303 33.713C82.7293 33.713 83.5123 34.235 83.5123 35.459H82.7743C82.7743 34.73 82.1893 34.406 80.8303 34.406C79.4893 34.406 78.8953 34.721 78.8953 35.45C78.8953 36.206 79.3993 36.512 80.5963 36.512H84.5203V37.169H83.5123V38.294C83.5123 39.59 82.6933 40.139 80.7943 40.139C78.8953 40.139 78.0763 39.608 78.0763 38.384C78.0763 37.601 78.4183 37.088 79.0933 36.836ZM78.8143 38.303C78.8143 39.095 79.4353 39.446 80.8123 39.446C82.2163 39.446 82.8103 39.095 82.8103 38.294V37.169H80.6413C79.3543 37.169 78.8143 37.502 78.8143 38.303ZM88.8334 40.076H88.0504V33.776H91.1554C92.6404 33.776 93.2884 34.37 93.2884 35.747C93.2884 37.124 92.6584 37.718 91.1554 37.718H88.8334V40.076ZM91.1104 34.514H88.8334V36.98H91.1104C92.0824 36.98 92.5054 36.611 92.5054 35.747C92.5054 34.883 92.0824 34.514 91.1104 34.514ZM95.2758 37.583V40.076H94.4928V33.776H97.7328C99.2178 33.776 99.8658 34.316 99.8658 35.567C99.8658 36.404 99.5598 36.953 98.9388 37.196C99.5238 37.403 99.8208 37.871 99.8208 38.6V40.076H99.0378V38.627C99.0378 37.898 98.6418 37.583 97.7328 37.583H95.2758ZM95.2758 34.514V36.845H97.6878C98.6598 36.845 99.0828 36.494 99.0828 35.675C99.0828 34.874 98.6598 34.514 97.6878 34.514H95.2758ZM101.817 34.469C102.321 33.965 103.14 33.713 104.265 33.713C105.39 33.713 106.209 33.965 106.722 34.478C107.235 34.991 107.487 35.801 107.487 36.926C107.487 38.051 107.235 38.861 106.722 39.374C106.209 39.887 105.39 40.139 104.265 40.139C103.14 40.139 102.321 39.887 101.817 39.374C101.304 38.87 101.052 38.051 101.052 36.926C101.052 35.801 101.304 34.982 101.817 34.469ZM102.411 35.036C102.024 35.432 101.835 36.062 101.835 36.926C101.835 37.79 102.024 38.42 102.411 38.807C102.798 39.203 103.41 39.401 104.265 39.401C105.12 39.401 105.741 39.203 106.128 38.807C106.515 38.42 106.704 37.79 106.704 36.926C106.704 36.062 106.515 35.432 106.128 35.036C105.741 34.649 105.12 34.451 104.265 34.451C103.41 34.451 102.798 34.649 102.411 35.036ZM108.575 36.917C108.575 34.676 109.547 33.713 111.788 33.713C113.597 33.713 114.56 34.325 114.875 35.72H114.056C113.759 34.874 113.003 34.451 111.788 34.451C110.087 34.451 109.358 35.198 109.358 36.926C109.358 38.663 110.096 39.401 111.959 39.401C113.435 39.401 114.092 38.951 114.092 37.916V37.466H111.752V36.773H114.893V37.916C114.893 39.464 113.993 40.139 111.95 40.139C110.753 40.139 109.889 39.887 109.367 39.374C108.836 38.87 108.575 38.051 108.575 36.917ZM117.09 37.583V40.076H116.307V33.776H119.547C121.032 33.776 121.68 34.316 121.68 35.567C121.68 36.404 121.374 36.953 120.753 37.196C121.338 37.403 121.635 37.871 121.635 38.6V40.076H120.852V38.627C120.852 37.898 120.456 37.583 119.547 37.583H117.09ZM117.09 34.514V36.845H119.502C120.474 36.845 120.897 36.494 120.897 35.675C120.897 34.874 120.474 34.514 119.502 34.514H117.09ZM123.467 40.076H122.63L125.591 33.776H126.5L129.452 40.076H128.615L127.949 38.636L124.142 38.645L123.467 40.076ZM127.598 37.898L126.05 34.577L124.493 37.898H127.598ZM131.285 40.076H130.502V33.776H131.771L134.264 39.23L136.748 33.776H138.017V40.076H137.234V34.523L134.714 40.076H133.805L131.285 34.523V40.076ZM139.894 40.076H139.057L142.018 33.776H142.927L145.879 40.076H145.042L144.376 38.636L140.569 38.645L139.894 40.076ZM144.025 37.898L142.477 34.577L140.92 37.898H144.025ZM147.195 39.374C146.682 38.87 146.43 38.051 146.43 36.926C146.43 35.801 146.682 34.982 147.195 34.469C147.699 33.965 148.518 33.713 149.643 33.713C151.488 33.713 152.469 34.361 152.757 35.828H151.947C151.659 34.883 150.939 34.451 149.643 34.451C147.942 34.451 147.213 35.198 147.213 36.926C147.213 38.654 147.942 39.401 149.643 39.401C150.939 39.401 151.668 38.978 151.947 38.015H152.757C152.469 39.482 151.488 40.139 149.643 40.139C148.518 40.139 147.699 39.887 147.195 39.374ZM154.91 40.076H154.127V33.776H154.91V40.076ZM157.047 34.469C157.551 33.965 158.37 33.713 159.495 33.713C160.62 33.713 161.439 33.965 161.952 34.478C162.465 34.991 162.717 35.801 162.717 36.926C162.717 38.051 162.465 38.861 161.952 39.374C161.439 39.887 160.62 40.139 159.495 40.139C158.37 40.139 157.551 39.887 157.047 39.374C156.534 38.87 156.282 38.051 156.282 36.926C156.282 35.801 156.534 34.982 157.047 34.469ZM157.641 35.036C157.254 35.432 157.065 36.062 157.065 36.926C157.065 37.79 157.254 38.42 157.641 38.807C158.028 39.203 158.64 39.401 159.495 39.401C160.35 39.401 160.971 39.203 161.358 38.807C161.745 38.42 161.934 37.79 161.934 36.926C161.934 36.062 161.745 35.432 161.358 35.036C160.971 34.649 160.35 34.451 159.495 34.451C158.64 34.451 158.028 34.649 157.641 35.036ZM164.859 34.919V40.076H164.076V33.776H164.859L169.287 38.942V33.776H170.07V40.076H169.287L164.859 34.919Z" fill="#3E2C80"/>
<defs>
<clipPath id="clip0_188_7817">
<rect width="171" height="24.0761" fill="white"/>
</clipPath>
</defs>
</svg>
