<svg width="247" height="65" viewBox="0 0 247 65" fill="none" xmlns="http://www.w3.org/2000/svg">
<g filter="url(#filter0_d_188_7853)">
<rect x="8" y="8" width="231" height="49" rx="5" fill="#3E2C80" shape-rendering="crispEdges"/>
<rect x="8" y="8" width="231" height="49" rx="5" stroke="url(#paint0_linear_188_7853)" stroke-opacity="0.1" stroke-width="2" shape-rendering="crispEdges"/>
<path d="M36.628 25.652V27.5H28.452V17.7H36.628V19.548H30.426V21.732H35.928V23.468H30.426V25.652H36.628ZM37.687 22.6C37.687 19.072 39.185 17.574 42.713 17.574C45.737 17.574 47.263 18.694 47.641 21.214H45.625C45.275 19.968 44.351 19.408 42.713 19.408C40.571 19.408 39.647 20.374 39.647 22.6C39.647 24.826 40.571 25.778 42.713 25.778C44.351 25.778 45.275 25.218 45.625 23.972H47.655C47.263 26.506 45.737 27.626 42.713 27.626C39.185 27.626 37.687 26.114 37.687 22.6ZM53.9513 17.574C57.4653 17.574 58.9773 19.072 58.9773 22.6C58.9773 26.114 57.4653 27.626 53.9513 27.626C50.4233 27.626 48.9253 26.114 48.9253 22.6C48.9253 19.072 50.4233 17.574 53.9513 17.574ZM51.6133 20.164C51.1233 20.682 50.8853 21.494 50.8853 22.6C50.8853 23.706 51.1233 24.518 51.6133 25.022C52.1033 25.526 52.8733 25.778 53.9513 25.778C55.0293 25.778 55.7993 25.526 56.2893 25.022C56.7793 24.518 57.0173 23.706 57.0173 22.6C57.0173 21.494 56.7793 20.682 56.2893 20.164C55.7993 19.66 55.0293 19.408 53.9513 19.408C52.8733 19.408 52.1033 19.66 51.6133 20.164ZM60.1612 24.532H62.1772C62.4152 25.386 63.2132 25.778 64.8232 25.778C66.3072 25.778 67.0492 25.442 67.0492 24.784C67.0492 24.154 66.3632 23.804 64.4032 23.468C62.8352 23.188 61.7572 22.838 61.1832 22.404C60.5952 21.984 60.3012 21.354 60.3012 20.5C60.3012 18.498 61.6172 17.588 64.4312 17.588C67.1752 17.588 68.4912 18.484 68.7852 20.682H66.7272C66.5452 19.8 65.8032 19.422 64.3052 19.422C62.9192 19.422 62.2192 19.744 62.2192 20.388C62.2192 20.682 62.4012 20.906 62.7652 21.088C63.1152 21.27 63.7732 21.438 64.7252 21.62C66.3492 21.914 67.4692 22.278 68.0712 22.712C68.6732 23.146 68.9812 23.79 68.9812 24.644C68.9812 26.66 67.5952 27.626 64.6412 27.626C61.7992 27.626 60.4552 26.716 60.1612 24.532ZM72.4533 27.5H70.4793V17.7H72.4533V27.5ZM73.9562 24.532H75.9722C76.2102 25.386 77.0082 25.778 78.6182 25.778C80.1022 25.778 80.8442 25.442 80.8442 24.784C80.8442 24.154 80.1582 23.804 78.1982 23.468C76.6302 23.188 75.5522 22.838 74.9782 22.404C74.3902 21.984 74.0962 21.354 74.0962 20.5C74.0962 18.498 75.4122 17.588 78.2262 17.588C80.9702 17.588 82.2862 18.484 82.5802 20.682H80.5222C80.3402 19.8 79.5982 19.422 78.1002 19.422C76.7142 19.422 76.0142 19.744 76.0142 20.388C76.0142 20.682 76.1962 20.906 76.5602 21.088C76.9102 21.27 77.5682 21.438 78.5202 21.62C80.1442 21.914 81.2642 22.278 81.8662 22.712C82.4682 23.146 82.7762 23.79 82.7762 24.644C82.7762 26.66 81.3902 27.626 78.4362 27.626C75.5942 27.626 74.2502 26.716 73.9562 24.532ZM87.0568 19.548H83.2488V17.7H92.8388V19.548H89.0308V27.5H87.0568V19.548ZM102.335 25.652V27.5H94.159V17.7H102.335V19.548H96.133V21.732H101.635V23.468H96.133V25.652H102.335ZM105.977 19.73V27.5H104.003V17.7H107.209L110.191 25.302L113.145 17.7H116.351V27.5H114.391V19.716L111.283 27.5H109.071L105.977 19.73ZM120.447 25.708L119.649 27.5H117.563L121.973 17.7H124.185L128.595 27.5H126.509L125.711 25.708H120.447ZM124.885 23.86L123.079 19.772L121.273 23.86H124.885ZM137.665 27.5H133.493V17.7H137.665C141.179 17.7 142.691 19.17 142.691 22.6C142.691 26.03 141.179 27.5 137.665 27.5ZM135.467 19.548V25.652H137.595C139.793 25.652 140.731 24.742 140.731 22.6C140.731 20.458 139.793 19.548 137.595 19.548H135.467ZM146.268 27.5H144.294V17.7H146.268V27.5ZM149.101 26.436C148.275 25.638 147.869 24.364 147.869 22.6C147.869 20.836 148.261 19.562 149.059 18.764C149.857 17.966 151.131 17.574 152.895 17.574C155.849 17.574 157.389 18.624 157.795 21.018H155.737C155.359 19.94 154.407 19.408 152.895 19.408C150.753 19.408 149.829 20.374 149.829 22.6C149.829 24.84 150.767 25.778 153.175 25.778C155.023 25.778 155.807 25.26 155.807 24.07V23.804H152.797V22.068H157.781V24.07C157.781 26.548 156.381 27.626 153.147 27.626C151.271 27.626 149.927 27.234 149.101 26.436ZM161.43 27.5H159.456V17.7H161.43V27.5ZM166.559 19.548H162.751V17.7H172.341V19.548H168.533V27.5H166.559V19.548ZM174.314 25.708L173.516 27.5H171.43L175.84 17.7H178.052L182.462 27.5H180.376L179.578 25.708H174.314ZM178.752 23.86L176.946 19.772L175.14 23.86H178.752ZM191.453 27.5H183.669V17.7H185.643V25.652H191.453V27.5ZM205.07 23.86V25.582H203.558V27.5H201.71V25.582H196.166V23.86L200.73 17.7H203.558V23.86H205.07ZM201.71 19.198L198.294 23.86H201.71V19.198ZM206.366 27.318C206.156 27.122 206.058 26.8 206.058 26.366C206.058 25.932 206.156 25.61 206.366 25.4C206.562 25.204 206.884 25.106 207.318 25.106C207.752 25.106 208.074 25.204 208.284 25.4C208.48 25.61 208.578 25.932 208.578 26.366C208.578 26.8 208.48 27.122 208.284 27.318C208.074 27.528 207.752 27.626 207.318 27.626C206.884 27.626 206.562 27.528 206.366 27.318ZM214.348 17.574C217.428 17.574 218.716 19.072 218.716 22.6C218.716 26.128 217.428 27.626 214.348 27.626C211.282 27.626 209.966 26.114 209.966 22.6C209.966 19.072 211.282 17.574 214.348 17.574ZM211.8 22.6C211.8 24.896 212.598 25.904 214.348 25.904C216.14 25.904 216.882 24.91 216.882 22.6C216.882 20.262 216.14 19.296 214.348 19.296C212.598 19.296 211.8 20.29 211.8 22.6ZM29.544 46.408C28.746 45.624 28.354 44.35 28.354 42.6C28.354 40.85 28.746 39.576 29.544 38.778C30.328 37.994 31.602 37.602 33.352 37.602C36.222 37.602 37.748 38.61 38.196 40.892H36.936C36.488 39.422 35.368 38.75 33.352 38.75C30.706 38.75 29.572 39.912 29.572 42.6C29.572 45.288 30.706 46.45 33.352 46.45C35.368 46.45 36.502 45.792 36.936 44.294H38.196C37.748 46.576 36.222 47.598 33.352 47.598C31.602 47.598 30.328 47.206 29.544 46.408ZM41.0967 38.778C41.8807 37.994 43.1547 37.602 44.9047 37.602C46.6547 37.602 47.9287 37.994 48.7267 38.792C49.5247 39.59 49.9167 40.85 49.9167 42.6C49.9167 44.35 49.5247 45.61 48.7267 46.408C47.9287 47.206 46.6547 47.598 44.9047 47.598C43.1547 47.598 41.8807 47.206 41.0967 46.408C40.2987 45.624 39.9067 44.35 39.9067 42.6C39.9067 40.85 40.2987 39.576 41.0967 38.778ZM42.0207 39.66C41.4187 40.276 41.1247 41.256 41.1247 42.6C41.1247 43.944 41.4187 44.924 42.0207 45.526C42.6227 46.142 43.5747 46.45 44.9047 46.45C46.2347 46.45 47.2007 46.142 47.8027 45.526C48.4047 44.924 48.6987 43.944 48.6987 42.6C48.6987 41.256 48.4047 40.276 47.8027 39.66C47.2007 39.058 46.2347 38.75 44.9047 38.75C43.5747 38.75 42.6227 39.058 42.0207 39.66ZM53.2479 47.5H52.0299V37.7H54.0039L57.8819 46.184L61.7459 37.7H63.7199V47.5H62.5019V38.862L58.5819 47.5H57.1679L53.2479 38.862V47.5ZM67.4803 47.5H66.2623V37.7H67.4803V47.5ZM71.2537 39.478V47.5H70.0357V37.7H71.2537L78.1417 45.736V37.7H79.3597V47.5H78.1417L71.2537 39.478ZM81.4966 42.586C81.4966 39.1 83.0086 37.602 86.4946 37.602C89.3086 37.602 90.8066 38.554 91.2966 40.724H90.0226C89.5606 39.408 88.3846 38.75 86.4946 38.75C83.8486 38.75 82.7146 39.912 82.7146 42.6C82.7146 45.302 83.8626 46.45 86.7606 46.45C89.0566 46.45 90.0786 45.75 90.0786 44.14V43.44H86.4386V42.362H91.3246V44.14C91.3246 46.548 89.9246 47.598 86.7466 47.598C84.8846 47.598 83.5406 47.206 82.7286 46.408C81.9026 45.624 81.4966 44.35 81.4966 42.586ZM96.7911 44.798H98.0511C98.4011 45.96 99.3951 46.45 101.299 46.45C103.217 46.45 104.183 45.932 104.183 44.896C104.183 44.42 103.945 44.042 103.469 43.762C102.979 43.496 102.139 43.258 100.935 43.076C99.4371 42.838 98.3871 42.516 97.8131 42.11C97.2251 41.704 96.9311 41.116 96.9311 40.318C96.9311 38.512 98.2751 37.602 100.963 37.602C103.581 37.602 104.855 38.428 105.205 40.402H103.931C103.637 39.268 102.685 38.75 100.879 38.75C99.0451 38.75 98.1351 39.254 98.1351 40.248C98.1351 40.696 98.3591 41.032 98.8071 41.27C99.2411 41.508 100.025 41.732 101.159 41.914C102.755 42.18 103.861 42.53 104.477 42.936C105.079 43.356 105.387 43.972 105.387 44.798C105.387 46.66 103.987 47.598 101.173 47.598C98.4851 47.598 97.1691 46.758 96.7911 44.798ZM108.103 38.778C108.887 37.994 110.161 37.602 111.911 37.602C113.661 37.602 114.935 37.994 115.733 38.792C116.531 39.59 116.923 40.85 116.923 42.6C116.923 44.35 116.531 45.61 115.733 46.408C114.935 47.206 113.661 47.598 111.911 47.598C110.161 47.598 108.887 47.206 108.103 46.408C107.305 45.624 106.913 44.35 106.913 42.6C106.913 40.85 107.305 39.576 108.103 38.778ZM109.027 39.66C108.425 40.276 108.131 41.256 108.131 42.6C108.131 43.944 108.425 44.924 109.027 45.526C109.629 46.142 110.581 46.45 111.911 46.45C113.241 46.45 114.207 46.142 114.809 45.526C115.411 44.924 115.705 43.944 115.705 42.6C115.705 41.256 115.411 40.276 114.809 39.66C114.207 39.058 113.241 38.75 111.911 38.75C110.581 38.75 109.629 39.058 109.027 39.66ZM119.806 38.778C120.59 37.994 121.864 37.602 123.614 37.602C125.364 37.602 126.638 37.994 127.436 38.792C128.234 39.59 128.626 40.85 128.626 42.6C128.626 44.35 128.234 45.61 127.436 46.408C126.638 47.206 125.364 47.598 123.614 47.598C121.864 47.598 120.59 47.206 119.806 46.408C119.008 45.624 118.616 44.35 118.616 42.6C118.616 40.85 119.008 39.576 119.806 38.778ZM120.73 39.66C120.128 40.276 119.834 41.256 119.834 42.6C119.834 43.944 120.128 44.924 120.73 45.526C121.332 46.142 122.284 46.45 123.614 46.45C124.944 46.45 125.91 46.142 126.512 45.526C127.114 44.924 127.408 43.944 127.408 42.6C127.408 41.256 127.114 40.276 126.512 39.66C125.91 39.058 124.944 38.75 123.614 38.75C122.284 38.75 121.332 39.058 120.73 39.66ZM131.957 39.478V47.5H130.739V37.7H131.957L138.845 45.736V37.7H140.063V47.5H138.845L131.957 39.478ZM142.396 47.388C142.256 47.262 142.186 47.038 142.186 46.716C142.186 46.394 142.256 46.17 142.396 46.03C142.536 45.89 142.76 45.82 143.082 45.82C143.404 45.82 143.628 45.89 143.768 46.03C143.908 46.17 143.978 46.394 143.978 46.716C143.978 47.038 143.908 47.262 143.768 47.388C143.628 47.528 143.404 47.598 143.082 47.598C142.76 47.598 142.536 47.528 142.396 47.388ZM145.868 47.388C145.728 47.262 145.658 47.038 145.658 46.716C145.658 46.394 145.728 46.17 145.868 46.03C146.008 45.89 146.232 45.82 146.554 45.82C146.876 45.82 147.1 45.89 147.24 46.03C147.38 46.17 147.45 46.394 147.45 46.716C147.45 47.038 147.38 47.262 147.24 47.388C147.1 47.528 146.876 47.598 146.554 47.598C146.232 47.598 146.008 47.528 145.868 47.388ZM149.341 47.388C149.201 47.262 149.131 47.038 149.131 46.716C149.131 46.394 149.201 46.17 149.341 46.03C149.481 45.89 149.705 45.82 150.027 45.82C150.349 45.82 150.573 45.89 150.713 46.03C150.853 46.17 150.923 46.394 150.923 46.716C150.923 47.038 150.853 47.262 150.713 47.388C150.573 47.528 150.349 47.598 150.027 47.598C149.705 47.598 149.481 47.528 149.341 47.388Z" fill="white"/>
</g>
<defs>
<filter id="filter0_d_188_7853" x="0.8" y="0.8" width="245.4" height="63.4" filterUnits="userSpaceOnUse" color-interpolation-filters="sRGB">
<feFlood flood-opacity="0" result="BackgroundImageFix"/>
<feColorMatrix in="SourceAlpha" type="matrix" values="0 0 0 0 0 0 0 0 0 0 0 0 0 0 0 0 0 0 127 0" result="hardAlpha"/>
<feOffset/>
<feGaussianBlur stdDeviation="3.1"/>
<feComposite in2="hardAlpha" operator="out"/>
<feColorMatrix type="matrix" values="0 0 0 0 0.243137 0 0 0 0 0.172549 0 0 0 0 0.501961 0 0 0 0.25 0"/>
<feBlend mode="normal" in2="BackgroundImageFix" result="effect1_dropShadow_188_7853"/>
<feBlend mode="normal" in="SourceGraphic" in2="effect1_dropShadow_188_7853" result="shape"/>
</filter>
<linearGradient id="paint0_linear_188_7853" x1="158.15" y1="8" x2="127.302" y2="59.2869" gradientUnits="userSpaceOnUse">
<stop stop-color="white"/>
<stop offset="1" stop-color="white"/>
</linearGradient>
</defs>
</svg>
