<svg width="118" height="36" viewBox="0 0 118 36" fill="none" xmlns="http://www.w3.org/2000/svg">
<path d="M3.068 28.8877H2.546V24.6877H3.068V28.8877ZM4.68519 25.4497V28.8877H4.16319V24.6877H4.68519L7.63719 28.1317V24.6877H8.15919V28.8877H7.63719L4.68519 25.4497ZM9.07498 26.7817C9.07498 25.2877 9.72298 24.6457 11.217 24.6457C12.423 24.6457 13.065 25.0537 13.275 25.9837H12.729C12.531 25.4197 12.027 25.1377 11.217 25.1377C10.083 25.1377 9.59698 25.6357 9.59698 26.7877C9.59698 27.9457 10.089 28.4377 11.331 28.4377C12.315 28.4377 12.753 28.1377 12.753 27.4477V27.1477H11.193V26.6857H13.287V27.4477C13.287 28.4797 12.687 28.9297 11.325 28.9297C10.527 28.9297 9.95098 28.7617 9.60298 28.4197C9.24898 28.0837 9.07498 27.5377 9.07498 26.7817ZM17.6616 28.3957V28.8877H14.2296V24.6877H17.6616V25.1797H14.7516V26.5537H17.3616V27.0217H14.7516V28.3957H17.6616ZM19.1403 25.4497V28.8877H18.6183V24.6877H19.1403L22.0923 28.1317V24.6877H22.6143V28.8877H22.0923L19.1403 25.4497ZM24.2321 28.8877H23.7101V24.6877H24.2321V28.8877ZM28.7593 28.3957V28.8877H25.3273V24.6877H28.7593V25.1797H25.8493V26.5537H28.4593V27.0217H25.8493V28.3957H28.7593ZM30.2379 27.2257V28.8877H29.7159V24.6877H31.8759C32.8659 24.6877 33.2979 25.0477 33.2979 25.8817C33.2979 26.4397 33.0939 26.8057 32.6799 26.9677C33.0699 27.1057 33.2679 27.4177 33.2679 27.9037V28.8877H32.7459V27.9217C32.7459 27.4357 32.4819 27.2257 31.8759 27.2257H30.2379ZM30.2379 25.1797V26.7337H31.8459C32.4939 26.7337 32.7759 26.4997 32.7759 25.9537C32.7759 25.4197 32.4939 25.1797 31.8459 25.1797H30.2379ZM34.8493 28.8877H34.3273V24.6877H34.8493V28.8877ZM36.1064 28.8877H35.5484L37.5224 24.6877H38.1284L40.0964 28.8877H39.5384L39.0944 27.9277L36.5564 27.9337L36.1064 28.8877ZM38.8604 27.4357L37.8284 25.2217L36.7904 27.4357H38.8604ZM42.1662 27.9517V27.4837L44.4582 24.6877H45.2262V27.4837H46.0122V27.9517H45.2262V28.8877H44.7282V27.9517H42.1662ZM44.7282 25.0537L42.7602 27.4837H44.7282V25.0537ZM46.6004 28.8397C46.5404 28.7857 46.5104 28.6897 46.5104 28.5517C46.5104 28.4137 46.5404 28.3177 46.6004 28.2577C46.6604 28.1977 46.7564 28.1677 46.8944 28.1677C47.0324 28.1677 47.1284 28.1977 47.1884 28.2577C47.2484 28.3177 47.2784 28.4137 47.2784 28.5517C47.2784 28.6897 47.2484 28.7857 47.1884 28.8397C47.1284 28.8997 47.0324 28.9297 46.8944 28.9297C46.7564 28.9297 46.6604 28.8997 46.6004 28.8397ZM48.4427 25.1497C48.7367 24.8137 49.2047 24.6457 49.8467 24.6457C50.4887 24.6457 50.9567 24.8137 51.2507 25.1497C51.5447 25.4917 51.6887 26.0377 51.6887 26.7877C51.6887 27.5377 51.5447 28.0837 51.2507 28.4197C50.9567 28.7617 50.4887 28.9297 49.8467 28.9297C49.2047 28.9297 48.7367 28.7617 48.4427 28.4197C48.1487 28.0837 48.0047 27.5377 48.0047 26.7877C48.0047 26.0377 48.1487 25.4917 48.4427 25.1497ZM48.4967 26.7877C48.4967 27.9577 48.9107 28.4677 49.8467 28.4677C50.7887 28.4677 51.1967 27.9637 51.1967 26.7877C51.1967 25.6117 50.7887 25.1077 49.8467 25.1077C48.9107 25.1077 48.4967 25.6117 48.4967 26.7877ZM54.7288 26.7277C54.3148 26.5717 54.1048 26.2477 54.1048 25.7557C54.1048 24.9697 54.6208 24.6457 55.8868 24.6457C57.1528 24.6457 57.6748 24.9937 57.6748 25.8097H57.1828C57.1828 25.3237 56.7928 25.1077 55.8868 25.1077C54.9928 25.1077 54.5968 25.3177 54.5968 25.8037C54.5968 26.3077 54.9328 26.5117 55.7308 26.5117H58.3468V26.9497H57.6748V27.6997C57.6748 28.5637 57.1288 28.9297 55.8628 28.9297C54.5968 28.9297 54.0508 28.5757 54.0508 27.7597C54.0508 27.2377 54.2788 26.8957 54.7288 26.7277ZM54.5428 27.7057C54.5428 28.2337 54.9568 28.4677 55.8748 28.4677C56.8108 28.4677 57.2068 28.2337 57.2068 27.6997V26.9497H55.7608C54.9028 26.9497 54.5428 27.1717 54.5428 27.7057ZM61.2223 28.8877H60.7003V24.6877H62.7703C63.7603 24.6877 64.1923 25.0837 64.1923 26.0017C64.1923 26.9197 63.7723 27.3157 62.7703 27.3157H61.2223V28.8877ZM62.7403 25.1797H61.2223V26.8237H62.7403C63.3883 26.8237 63.6703 26.5777 63.6703 26.0017C63.6703 25.4257 63.3883 25.1797 62.7403 25.1797ZM65.5172 27.2257V28.8877H64.9952V24.6877H67.1552C68.1452 24.6877 68.5772 25.0477 68.5772 25.8817C68.5772 26.4397 68.3732 26.8057 67.9592 26.9677C68.3492 27.1057 68.5472 27.4177 68.5472 27.9037V28.8877H68.0252V27.9217C68.0252 27.4357 67.7612 27.2257 67.1552 27.2257H65.5172ZM65.5172 25.1797V26.7337H67.1252C67.7732 26.7337 68.0552 26.4997 68.0552 25.9537C68.0552 25.4197 67.7732 25.1797 67.1252 25.1797H65.5172ZM69.878 25.1497C70.214 24.8137 70.76 24.6457 71.51 24.6457C72.26 24.6457 72.806 24.8137 73.148 25.1557C73.49 25.4977 73.658 26.0377 73.658 26.7877C73.658 27.5377 73.49 28.0777 73.148 28.4197C72.806 28.7617 72.26 28.9297 71.51 28.9297C70.76 28.9297 70.214 28.7617 69.878 28.4197C69.536 28.0837 69.368 27.5377 69.368 26.7877C69.368 26.0377 69.536 25.4917 69.878 25.1497ZM70.274 25.5277C70.016 25.7917 69.89 26.2117 69.89 26.7877C69.89 27.3637 70.016 27.7837 70.274 28.0417C70.532 28.3057 70.94 28.4377 71.51 28.4377C72.08 28.4377 72.494 28.3057 72.752 28.0417C73.01 27.7837 73.136 27.3637 73.136 26.7877C73.136 26.2117 73.01 25.7917 72.752 25.5277C72.494 25.2697 72.08 25.1377 71.51 25.1377C70.94 25.1377 70.532 25.2697 70.274 25.5277ZM74.3836 26.7817C74.3836 25.2877 75.0316 24.6457 76.5256 24.6457C77.7316 24.6457 78.3736 25.0537 78.5836 25.9837H78.0376C77.8396 25.4197 77.3356 25.1377 76.5256 25.1377C75.3916 25.1377 74.9056 25.6357 74.9056 26.7877C74.9056 27.9457 75.3976 28.4377 76.6396 28.4377C77.6236 28.4377 78.0616 28.1377 78.0616 27.4477V27.1477H76.5016V26.6857H78.5956V27.4477C78.5956 28.4797 77.9956 28.9297 76.6336 28.9297C75.8356 28.9297 75.2596 28.7617 74.9116 28.4197C74.5576 28.0837 74.3836 27.5377 74.3836 26.7817ZM80.0602 27.2257V28.8877H79.5382V24.6877H81.6982C82.6882 24.6877 83.1202 25.0477 83.1202 25.8817C83.1202 26.4397 82.9162 26.8057 82.5022 26.9677C82.8922 27.1057 83.0902 27.4177 83.0902 27.9037V28.8877H82.5682V27.9217C82.5682 27.4357 82.3042 27.2257 81.6982 27.2257H80.0602ZM80.0602 25.1797V26.7337H81.6682C82.3162 26.7337 82.5982 26.4997 82.5982 25.9537C82.5982 25.4197 82.3162 25.1797 81.6682 25.1797H80.0602ZM84.3115 28.8877H83.7535L85.7275 24.6877H86.3335L88.3015 28.8877H87.7435L87.2995 27.9277L84.7615 27.9337L84.3115 28.8877ZM87.0655 27.4357L86.0335 25.2217L84.9955 27.4357H87.0655ZM89.5231 28.8877H89.0011V24.6877H89.8471L91.5091 28.3237L93.1651 24.6877H94.0111V28.8877H93.4891V25.1857L91.8091 28.8877H91.2031L89.5231 25.1857V28.8877ZM95.2627 28.8877H94.7047L96.6787 24.6877H97.2847L99.2527 28.8877H98.6947L98.2507 27.9277L95.7127 27.9337L95.2627 28.8877ZM98.0167 27.4357L96.9847 25.2217L95.9467 27.4357H98.0167ZM100.13 28.4197C99.7879 28.0837 99.6199 27.5377 99.6199 26.7877C99.6199 26.0377 99.7879 25.4917 100.13 25.1497C100.466 24.8137 101.012 24.6457 101.762 24.6457C102.992 24.6457 103.646 25.0777 103.838 26.0557H103.298C103.106 25.4257 102.626 25.1377 101.762 25.1377C100.628 25.1377 100.142 25.6357 100.142 26.7877C100.142 27.9397 100.628 28.4377 101.762 28.4377C102.626 28.4377 103.112 28.1557 103.298 27.5137H103.838C103.646 28.4917 102.992 28.9297 101.762 28.9297C101.012 28.9297 100.466 28.7617 100.13 28.4197ZM105.273 28.8877H104.751V24.6877H105.273V28.8877ZM106.698 25.1497C107.034 24.8137 107.58 24.6457 108.33 24.6457C109.08 24.6457 109.626 24.8137 109.968 25.1557C110.31 25.4977 110.478 26.0377 110.478 26.7877C110.478 27.5377 110.31 28.0777 109.968 28.4197C109.626 28.7617 109.08 28.9297 108.33 28.9297C107.58 28.9297 107.034 28.7617 106.698 28.4197C106.356 28.0837 106.188 27.5377 106.188 26.7877C106.188 26.0377 106.356 25.4917 106.698 25.1497ZM107.094 25.5277C106.836 25.7917 106.71 26.2117 106.71 26.7877C106.71 27.3637 106.836 27.7837 107.094 28.0417C107.352 28.3057 107.76 28.4377 108.33 28.4377C108.9 28.4377 109.314 28.3057 109.572 28.0417C109.83 27.7837 109.956 27.3637 109.956 26.7877C109.956 26.2117 109.83 25.7917 109.572 25.5277C109.314 25.2697 108.9 25.1377 108.33 25.1377C107.76 25.1377 107.352 25.2697 107.094 25.5277ZM111.906 25.4497V28.8877H111.384V24.6877H111.906L114.858 28.1317V24.6877H115.38V28.8877H114.858L111.906 25.4497Z" fill="white"/>
<g clip-path="url(#clip0_413_506)">
<path d="M23.1302 0.050293V3.69419V6.49139V10.1353V12.9576V16.5607C21.4807 16.3381 20.3173 15.0398 20.2985 13.2774C20.264 9.93772 20.2672 6.59801 20.2985 3.2583C20.3142 1.58374 21.5309 0.263533 23.1302 0.050293Z" fill="white"/>
<path d="M36.8685 3.69401H23.9424V0.0187585C28.4204 0.00621497 36.8779 0.0187585 36.8779 0.0187585C36.8779 1.06614 36.8685 3.69401 36.8685 3.69401Z" fill="white"/>
<path d="M36.8779 10.1351H23.9456V6.48805C27.9814 6.48178 32.9863 6.48491 36.8779 6.48491V10.1351Z" fill="white"/>
<path d="M36.881 16.6045C36.881 16.6045 28.3608 16.6076 23.9424 16.5951V12.9543H36.8497L36.881 16.6045Z" fill="white"/>
<path d="M104.255 0.0471191V3.69101H104.246V6.48822H104.255V10.1321H104.246V12.9544H104.255V16.5607C102.603 16.338 101.433 15.0398 101.414 13.2743C101.38 9.93455 101.383 6.59484 101.414 3.25512C101.43 1.57743 102.65 0.257223 104.255 0.0471191Z" fill="white"/>
<path d="M117.987 3.69084H105.071V0.0155847C109.552 0.00304114 117.997 0.0155847 117.997 0.0155847C117.997 1.06297 117.987 3.69084 117.987 3.69084Z" fill="white"/>
<path d="M117.997 10.1319H105.071V6.48488C109.104 6.47861 114.105 6.48174 117.997 6.48174V10.1319Z" fill="white"/>
<path d="M118 16.6045C118 16.6045 109.492 16.6076 105.071 16.5951V12.9543H117.969L118 16.6045Z" fill="white"/>
<path d="M97.7673 3.49658C97.7673 3.36174 97.7611 3.2269 97.7517 3.09205C97.6105 1.32028 96.1931 0.0126194 94.4088 0.0126194C91.8719 0.0126194 87.7325 0.0126194 84.7534 0.00634766V3.69414C87.8172 3.70041 92.1039 3.70355 94.92 3.69414V7.63908C95.0391 12.3554 92.2106 12.9136 92.2106 12.9136H84.7534V16.614C86.45 16.6171 88.504 16.614 90.3447 16.6014C95.7572 16.5575 97.7109 12.6283 97.7423 9.2227C97.7548 7.67357 97.7673 5.30598 97.7673 3.49658ZM81.1346 16.6014C81.1346 16.6014 82.2886 16.6077 83.9381 16.6108V0.00634766C82.3231 0.00634766 81.2005 0.00634766 81.1409 0.00634766C81.1409 0.00634766 81.1441 11.2642 81.1346 16.6014Z" fill="white"/>
<path d="M77.4876 3.42438C77.4876 3.28954 77.4813 3.15469 77.4719 3.01985C77.4468 2.68745 77.3747 2.37386 77.265 2.08536L74.6528 4.25539V12.9167H64.2166L61.4883 15.1808C62.0873 16.04 63.0688 16.6139 64.1821 16.6139C67.1831 16.6139 71.5137 16.6108 74.1228 16.6045C75.1608 16.6045 76.0482 16.131 76.7224 15.3282C77.2712 14.6791 77.4939 13.917 77.4907 13.0735C77.4845 9.85921 77.4876 6.64179 77.4876 3.42752V3.42438ZM63.6396 3.69407H74.0507L76.873 1.35156C76.2771 0.514284 75.2893 0.00313588 74.1448 0H64.1695C62.357 0 60.8706 1.40801 60.8674 3.22055C60.8674 5.94563 60.8612 9.8937 60.858 13.1989C60.858 13.6348 60.9396 14.055 61.0932 14.447L63.6364 12.3366V3.69407H63.6396Z" fill="white"/>
<path d="M11.0822 0.019043L9.6052 0.0284506V5.11798L12.2738 11.0699C11.6404 11.0699 10.6275 11.0699 9.6052 11.0699V14.7702C11.2829 14.7765 12.9136 14.7765 13.9233 14.7702L14.7041 16.611C14.7041 16.611 18.2571 16.6016 18.4107 16.5922C18.348 16.4322 11.0822 0.019043 11.0822 0.019043ZM0 16.6078H3.6972L4.50626 14.7514C5.51288 14.7577 7.12785 14.764 8.79301 14.7671V11.0699C7.38186 11.0699 6.15573 11.0699 6.15573 11.0699L8.79301 5.16502V0.0347224L7.35991 0.04413C7.35991 0.04413 0.078397 16.3727 0 16.6078Z" fill="white"/>
<path d="M43.4383 0.03125V16.5636C41.7449 16.3504 40.5532 15.0176 40.5407 13.227C40.5187 9.92181 40.5219 6.6166 40.5407 3.30824C40.5501 1.59919 41.7919 0.22881 43.4383 0.03125Z" fill="white"/>
<path d="M57.1671 3.69101L44.2504 3.68787V0.00634766H57.1671V3.69101Z" fill="white"/>
<path d="M57.1733 16.6045C52.9775 16.5983 48.4619 16.6077 44.2504 16.5951V12.9575C46.7089 12.9575 53.7772 12.9575 57.1639 12.9575L57.1733 16.6077V16.6045Z" fill="white"/>
</g>
<defs>
<clipPath id="clip0_413_506">
<rect width="118" height="16.6139" fill="white"/>
</clipPath>
</defs>
</svg>
