<svg width="1390" height="153" viewBox="15 15 1375 138" fill="none" xmlns="http://www.w3.org/2000/svg">
  <g filter="url(#filter0_bd_188_7813)">
    <path d="M15 15H631.5C650.5 15 647.392 50.4546 658 69.5C680 109 751 115 776 63.5C785.987 42.9274 779.5 17.5 792.5 15H1375V76.5V128C1375 133.523 1370.52 138 1365 138H25C19.4772 138 15 133.523 15 128V15Z" fill="url(#paint0_linear_188_7813)" fill-opacity="0.1" shape-rendering="crispEdges"/>
    <path d="M15 15H631.5C650.5 15 647.392 50.4546 658 69.5C680 109 751 115 776 63.5C785.987 42.9274 779.5 17.5 792.5 15H1375V76.5V128C1375 133.523 1370.52 138 1365 138H25C19.4772 138 15 133.523 15 128V15Z" stroke="url(#paint1_linear_188_7813)" stroke-opacity="0.3" stroke-width="2" shape-rendering="crispEdges"/>
  </g>
  <defs>
    <filter id="filter0_bd_188_7813" x="-36" y="-36" width="1462" height="225" filterUnits="userSpaceOnUse" color-interpolation-filters="sRGB">
      <feFlood flood-opacity="0" result="BackgroundImageFix"/>
      <feGaussianBlur in="BackgroundImageFix" stdDeviation="25"/>
      <feComposite in2="SourceAlpha" operator="in" result="effect1_backgroundBlur_188_7813"/>
      <feColorMatrix in="SourceAlpha" type="matrix" values="0 0 0 0 0 0 0 0 0 0 0 0 0 0 0 0 0 0 127 0" result="hardAlpha"/>
      <feOffset/>
      <feGaussianBlur stdDeviation="6.55"/>
      <feComposite in2="hardAlpha" operator="out"/>
      <feColorMatrix type="matrix" values="0 0 0 0 0 0 0 0 0 0 0 0 0 0 0 0 0 0 0.25 0"/>
      <feBlend mode="normal" in2="effect1_backgroundBlur_188_7813" result="effect2_dropShadow_188_7813"/>
      <feBlend mode="normal" in="SourceGraphic" in2="effect2_dropShadow_188_7813" result="shape"/>
    </filter>
    <linearGradient id="paint0_linear_188_7813" x1="1325.7" y1="87.8641" x2="15" y2="87.8641" gradientUnits="userSpaceOnUse">
      <stop offset="0.560051" stop-color="white"/>
      <stop offset="0.907269" stop-color="white" stop-opacity="0.2"/>
    </linearGradient>
    <linearGradient id="paint1_linear_188_7813" x1="899" y1="15" x2="856.815" y2="179.497" gradientUnits="userSpaceOnUse">
      <stop stop-color="white"/>
      <stop offset="1" stop-color="white"/>
    </linearGradient>
  </defs>
</svg>
