<svg width="69" height="69" viewBox="0 0 69 69" fill="none" xmlns="http://www.w3.org/2000/svg">
<g filter="url(#filter0_d_413_505)">
<circle cx="34.5" cy="34.5" r="20.5" transform="rotate(-180 34.5 34.5)" fill="url(#paint0_linear_413_505)" fill-opacity="0.1" shape-rendering="crispEdges"/>
<circle cx="34.5" cy="34.5" r="19.5" transform="rotate(-180 34.5 34.5)" stroke="white" stroke-opacity="0.3" stroke-width="2" shape-rendering="crispEdges"/>
</g>
<path d="M38.9839 22.5451V22.5451C39.0196 23.2824 37.9978 23.7334 37.3618 23.3587C37.169 23.2451 36.9703 23.1409 36.7663 23.0466C35.871 22.6324 34.8961 22.4185 33.9096 22.4196C30.5848 22.4196 27.8168 24.806 27.2232 27.9606C27.2144 28.0082 27.2162 28.057 27.2284 28.1038C27.2406 28.1506 27.263 28.1941 27.2939 28.2312C27.3248 28.2684 27.3635 28.2983 27.4073 28.3188C27.4511 28.3393 27.4988 28.3499 27.5471 28.35H28.8938C28.9681 28.3499 29.0401 28.3247 29.0983 28.2786C29.1564 28.2324 29.1973 28.168 29.2142 28.0957C29.4339 27.1842 29.914 26.3564 30.5962 25.7132C31.2783 25.07 32.1329 24.6392 33.0557 24.4735C33.9785 24.3077 34.9296 24.4141 35.7929 24.7797V24.7797C36.8537 25.229 36.2827 26.4541 35.132 26.399V26.399C35.0874 26.3969 35.0429 26.4038 35.0011 26.4194C34.9593 26.435 34.9211 26.459 34.8888 26.4898C34.8565 26.5206 34.8309 26.5576 34.8133 26.5986C34.7958 26.6397 34.7868 26.6838 34.7868 26.7284V28.0301C34.7868 28.1175 34.8216 28.2013 34.8833 28.2631C34.9451 28.3248 35.0289 28.3596 35.1163 28.3596H40.6134C40.7008 28.3596 40.7846 28.3248 40.8464 28.2631C40.9082 28.2013 40.9429 28.1175 40.9429 28.0301V22.5294C40.9429 22.442 40.9082 22.3582 40.8464 22.2964C40.7846 22.2347 40.7008 22.2 40.6134 22.2H39.3129C39.2683 22.2 39.2242 22.209 39.1832 22.2266C39.1423 22.2442 39.1053 22.2699 39.0745 22.3021C39.0438 22.3344 39.0199 22.3725 39.0043 22.4143C38.9888 22.4561 38.9818 22.5005 38.9839 22.5451ZM33.9096 34.0607C33.1174 34.0613 32.3373 33.8668 31.6381 33.4942V33.4942C30.7753 33.0345 31.2866 31.9909 32.2632 32.0376L32.6961 32.0583C32.7407 32.0605 32.7852 32.0535 32.827 32.0379C32.8688 32.0223 32.907 31.9984 32.9393 31.9676C32.9715 31.9368 32.9972 31.8997 33.0147 31.8587C33.0323 31.8177 33.0413 31.7735 33.0412 31.7289V30.4275C33.0412 30.3401 33.0065 30.2563 32.9447 30.1945C32.8829 30.1327 32.7991 30.098 32.7118 30.098H27.2152C27.1278 30.098 27.044 30.1327 26.9822 30.1945C26.9205 30.2563 26.8857 30.3401 26.8857 30.4275V35.9276C26.8857 36.015 26.9205 36.0988 26.9822 36.1606C27.044 36.2224 27.1278 36.2571 27.2152 36.2571H28.5152C28.5599 36.2571 28.6041 36.2481 28.6452 36.2305C28.6863 36.213 28.7234 36.1872 28.7542 36.1548C28.785 36.1225 28.8089 36.0842 28.8245 36.0423C28.84 36.0004 28.8469 35.9558 28.8447 35.9112V35.9112C28.8078 35.1764 29.8256 34.7254 30.4595 35.0987C30.6528 35.2126 30.852 35.317 31.0565 35.4115C31.9508 35.8248 32.9244 36.0384 33.9096 36.0375C37.2348 36.0375 40.0028 33.651 40.5964 30.4964C40.6052 30.4489 40.6034 30.4 40.5912 30.3532C40.5789 30.3065 40.5566 30.263 40.5257 30.2258C40.4947 30.1887 40.456 30.1588 40.4123 30.1382C40.3685 30.1177 40.3208 30.1071 40.2724 30.1071H38.9257C38.8515 30.1072 38.7795 30.1323 38.7213 30.1785C38.6632 30.2246 38.6223 30.2891 38.6053 30.3613C38.3518 31.4157 37.7507 32.354 36.8988 33.0251C36.047 33.6962 34.9941 34.0609 33.9096 34.0607Z" fill="white"/>
<path d="M23.6873 40.5101H22.1673V40.1001H25.6473V40.5101H24.1273V43.6001H23.6873V40.5101ZM26.06 42.3001V43.6001H25.645V41.0001H26.06V41.3851C26.23 41.1051 26.545 40.9651 27.01 40.9651H27.22V41.3501H26.895C26.295 41.3501 26.06 41.6251 26.06 42.3001ZM28.0394 44.8501L28.5694 43.6001L27.4644 41.0001H27.9044L28.7894 43.0651L29.6794 41.0001H30.1194L28.4844 44.8501H28.0394ZM32.9319 43.6351C32.2369 43.6351 31.9219 43.4051 31.9219 42.8701C31.9219 42.3151 32.2569 42.0901 33.0719 42.0901H33.9969V42.0551C33.9969 41.5401 33.7569 41.3251 33.1819 41.3251C32.7219 41.3251 32.4919 41.4701 32.3969 41.7951H31.9869C32.0869 41.2151 32.4419 40.9651 33.1969 40.9651C34.0519 40.9651 34.4119 41.2901 34.4119 42.0501V43.6001H33.9969V43.2151C33.8119 43.4951 33.4569 43.6351 32.9319 43.6351ZM32.3369 42.8551C32.3369 43.1501 32.5569 43.2751 33.0219 43.2751C33.6469 43.2751 33.9369 43.0551 33.9969 42.5501V42.4051H33.1669C32.5869 42.4051 32.3369 42.5401 32.3369 42.8551ZM36.2655 40.9651C36.7605 40.9651 37.0955 41.1151 37.2805 41.4101V41.0001H37.6905V43.5951C37.6905 44.5001 37.3005 44.8851 36.4005 44.8851C35.6255 44.8851 35.2455 44.6201 35.1505 44.0051H35.5605C35.6555 44.3451 35.9055 44.5001 36.3905 44.5001C37.0105 44.5001 37.2805 44.2251 37.2805 43.5851V43.1901C37.0955 43.4851 36.7605 43.6351 36.2655 43.6351C35.4205 43.6351 35.0555 43.2351 35.0555 42.3001C35.0555 41.3651 35.4205 40.9651 36.2655 40.9651ZM36.3705 43.2501C36.9955 43.2501 37.2705 42.9651 37.2705 42.3001C37.2705 41.6401 36.9955 41.3501 36.3705 41.3501C35.7355 41.3501 35.4655 41.6401 35.4655 42.3001C35.4655 42.9651 35.7355 43.2501 36.3705 43.2501ZM39.4114 43.6351C38.7164 43.6351 38.4014 43.4051 38.4014 42.8701C38.4014 42.3151 38.7364 42.0901 39.5514 42.0901H40.4764V42.0551C40.4764 41.5401 40.2364 41.3251 39.6614 41.3251C39.2014 41.3251 38.9714 41.4701 38.8764 41.7951H38.4664C38.5664 41.2151 38.9214 40.9651 39.6764 40.9651C40.5314 40.9651 40.8914 41.2901 40.8914 42.0501V43.6001H40.4764V43.2151C40.2914 43.4951 39.9364 43.6351 39.4114 43.6351ZM38.8164 42.8551C38.8164 43.1501 39.0364 43.2751 39.5014 43.2751C40.1264 43.2751 40.4164 43.0551 40.4764 42.5501V42.4051H39.6464C39.0664 42.4051 38.8164 42.5401 38.8164 42.8551ZM42.1 43.6001H41.685V41.0001H42.1V43.6001ZM41.67 40.4501C41.625 40.4051 41.605 40.3351 41.605 40.2301C41.605 40.1251 41.625 40.0501 41.67 40.0051C41.715 39.9601 41.785 39.9401 41.89 39.9401C41.995 39.9401 42.07 39.9601 42.115 40.0051C42.16 40.0501 42.185 40.1251 42.185 40.2301C42.185 40.3351 42.16 40.4051 42.115 40.4501C42.07 40.4951 41.995 40.5201 41.89 40.5201C41.785 40.5201 41.715 40.4951 41.67 40.4501ZM42.9106 43.6001V41.0001H43.3256V41.4001C43.5006 41.1101 43.8306 40.9651 44.3156 40.9651C45.0806 40.9651 45.4206 41.3051 45.4206 42.1001V43.6001H45.0056V42.1001C45.0056 41.5801 44.7606 41.3501 44.2056 41.3501C43.5806 41.3501 43.3256 41.6251 43.3256 42.3001V43.6001H42.9106Z" fill="white"/>
<defs>
<filter id="filter0_d_413_505" x="0.9" y="0.9" width="67.2" height="67.2" filterUnits="userSpaceOnUse" color-interpolation-filters="sRGB">
<feFlood flood-opacity="0" result="BackgroundImageFix"/>
<feColorMatrix in="SourceAlpha" type="matrix" values="0 0 0 0 0 0 0 0 0 0 0 0 0 0 0 0 0 0 127 0" result="hardAlpha"/>
<feOffset/>
<feGaussianBlur stdDeviation="6.55"/>
<feComposite in2="hardAlpha" operator="out"/>
<feColorMatrix type="matrix" values="0 0 0 0 0 0 0 0 0 0 0 0 0 0 0 0 0 0 0.25 0"/>
<feBlend mode="normal" in2="BackgroundImageFix" result="effect1_dropShadow_413_505"/>
<feBlend mode="normal" in="SourceGraphic" in2="effect1_dropShadow_413_505" result="shape"/>
</filter>
<linearGradient id="paint0_linear_413_505" x1="53.5137" y1="38.288" x2="14" y2="38.288" gradientUnits="userSpaceOnUse">
<stop offset="0.560051" stop-color="white"/>
<stop offset="0.907269" stop-color="white" stop-opacity="0.2"/>
</linearGradient>
</defs>
</svg>
