<svg width="138" height="138" viewBox="0 0 138 138" fill="none" xmlns="http://www.w3.org/2000/svg">
<g filter="url(#filter0_d_216_288)">
<circle cx="69" cy="69" r="55" fill="url(#paint0_linear_216_288)" fill-opacity="0.1" shape-rendering="crispEdges"/>
<circle cx="69" cy="69" r="54" stroke="white" stroke-opacity="0.3" stroke-width="2" shape-rendering="crispEdges"/>
</g>
<path d="M48.8571 93.6V94.776H45.3291V102H44.0811V94.776H40.5531V93.6H48.8571ZM50.0269 98.88V102H48.8509V95.76H50.0269V96.564C50.4349 95.964 51.1429 95.664 52.1629 95.664H52.7029V96.768H51.8269C50.5429 96.768 50.0269 97.392 50.0269 98.88ZM54.5628 105L55.8108 102L53.2068 95.76H54.4668L56.4348 100.464L58.4148 95.76H59.6748L55.8228 105H54.5628ZM66.2335 102.096C64.5655 102.096 63.8335 101.532 63.8335 100.224C63.8335 98.868 64.6375 98.328 66.5455 98.328H68.6695C68.6695 97.188 68.1175 96.696 66.8575 96.696C65.8495 96.696 65.3335 97.008 65.1415 97.728H63.9775C64.2055 96.288 65.0815 95.664 66.9055 95.664C68.9575 95.664 69.8455 96.468 69.8455 98.304V102H68.6695V101.196C68.2015 101.796 67.3855 102.096 66.2335 102.096ZM65.0095 100.176C65.0095 100.8 65.4895 101.064 66.5095 101.064C67.8655 101.064 68.5135 100.596 68.6695 99.504V99.216H66.8455C65.6215 99.216 65.0095 99.54 65.0095 100.176ZM74.117 95.664C75.233 95.664 76.001 95.988 76.445 96.636V95.76H77.621V101.976C77.621 104.148 76.673 105.096 74.501 105.096C72.617 105.096 71.693 104.436 71.465 102.912H72.629C72.857 103.668 73.421 103.992 74.489 103.992C75.869 103.992 76.445 103.38 76.445 101.952V101.124C76.001 101.772 75.233 102.096 74.117 102.096C72.113 102.096 71.261 101.124 71.261 98.88C71.261 96.624 72.113 95.664 74.117 95.664ZM72.917 100.488C73.229 100.824 73.733 100.992 74.429 100.992C75.125 100.992 75.629 100.824 75.953 100.488C76.265 100.164 76.421 99.624 76.421 98.88C76.421 97.404 75.821 96.768 74.429 96.768C73.037 96.768 72.437 97.404 72.437 98.88C72.437 99.624 72.593 100.164 72.917 100.488ZM81.5617 102.096C79.8937 102.096 79.1617 101.532 79.1617 100.224C79.1617 98.868 79.9657 98.328 81.8737 98.328H83.9977C83.9977 97.188 83.4457 96.696 82.1857 96.696C81.1777 96.696 80.6617 97.008 80.4697 97.728H79.3057C79.5337 96.288 80.4097 95.664 82.2337 95.664C84.2857 95.664 85.1737 96.468 85.1737 98.304V102H83.9977V101.196C83.5297 101.796 82.7137 102.096 81.5617 102.096ZM80.3377 100.176C80.3377 100.8 80.8177 101.064 81.8377 101.064C83.1937 101.064 83.8417 100.596 83.9977 99.504V99.216H82.1737C80.9497 99.216 80.3377 99.54 80.3377 100.176ZM88.1011 102H86.9251V95.76H88.1011V102ZM86.9131 94.548C86.7931 94.428 86.7331 94.224 86.7331 93.948C86.7331 93.672 86.7931 93.468 86.9131 93.348C87.0331 93.228 87.2371 93.168 87.5131 93.168C87.7891 93.168 87.9931 93.228 88.1131 93.348C88.2331 93.468 88.2931 93.672 88.2931 93.948C88.2931 94.224 88.2331 94.428 88.1131 94.548C87.9931 94.668 87.7891 94.728 87.5131 94.728C87.2371 94.728 87.0331 94.668 86.9131 94.548ZM89.8782 102V95.76H91.0542V96.6C91.4862 95.976 92.2422 95.664 93.3222 95.664C95.1342 95.664 95.9262 96.504 95.9262 98.424V102H94.7622V98.424C94.7622 97.272 94.2222 96.768 92.9862 96.768C91.6062 96.768 91.0542 97.392 91.0542 98.88V102H89.8782Z" fill="#3E2C80"/>
<path d="M83.2864 39.0066V39.0066C83.3904 41.1572 80.4102 42.4725 78.5551 41.3797C77.9927 41.0484 77.4132 40.7444 76.8183 40.4693C74.2069 39.2614 71.3636 38.6373 68.4864 38.6406C58.7889 38.6406 50.7154 45.601 48.9842 54.802C48.9585 54.9406 48.9638 55.0832 48.9994 55.2196C49.0351 55.356 49.1003 55.4829 49.1905 55.5912C49.2806 55.6996 49.3936 55.7868 49.5212 55.8466C49.6489 55.9065 49.7881 55.9375 49.9291 55.9375H53.8569C54.0734 55.9373 54.2836 55.8639 54.4532 55.7293C54.6228 55.5947 54.742 55.4068 54.7914 55.196C55.432 52.5375 56.8325 50.123 58.822 48.247C60.8116 46.3709 63.3042 45.1146 65.9956 44.6311C68.6871 44.1477 71.4611 44.4581 73.9792 45.5244V45.5244C77.0732 46.8347 75.4077 50.4079 72.0515 50.2471V50.2471C71.9215 50.241 71.7916 50.2612 71.6697 50.3068C71.5478 50.3523 71.4364 50.4221 71.3423 50.5119C71.2482 50.6018 71.1733 50.7098 71.1221 50.8295C71.071 50.9492 71.0447 51.078 71.0449 51.2081V55.0046C71.0449 55.2594 71.1461 55.5039 71.3263 55.6841C71.5065 55.8643 71.751 55.9655 72.0058 55.9655H88.0391C88.2939 55.9655 88.5383 55.8643 88.7185 55.6841C88.8988 55.5039 89 55.2594 89 55.0046V38.9609C89 38.7061 88.8988 38.4617 88.7185 38.2815C88.5383 38.1012 88.2939 38 88.0391 38H84.2458C84.1158 38.0001 83.9871 38.0265 83.8677 38.0777C83.7482 38.1289 83.6403 38.2039 83.5507 38.298C83.461 38.3921 83.3913 38.5034 83.3459 38.6252C83.3005 38.747 83.2803 38.8767 83.2864 39.0066ZM68.4864 72.5938C66.1758 72.5957 63.9003 72.0283 61.8611 70.9417V70.9417C59.3446 69.6007 60.8359 66.557 63.6841 66.6932L64.9469 66.7537C65.0769 66.7598 65.2068 66.7396 65.3287 66.694C65.4506 66.6485 65.562 66.5787 65.6561 66.4889C65.7502 66.399 65.8251 66.291 65.8763 66.1713C65.9274 66.0516 65.9537 65.9228 65.9535 65.7927V61.997C65.9535 61.7422 65.8523 61.4977 65.6721 61.3175C65.4919 61.1373 65.2474 61.0361 64.9926 61.0361H48.9609C48.7061 61.0361 48.4617 61.1373 48.2815 61.3175C48.1012 61.4977 48 61.7422 48 61.997V78.0391C48 78.2939 48.1012 78.5383 48.2815 78.7185C48.4617 78.8988 48.7061 79 48.9609 79H52.7526C52.883 79.0002 53.012 78.9738 53.1318 78.9225C53.2517 78.8713 53.3598 78.7962 53.4497 78.7018C53.5396 78.6074 53.6093 78.4957 53.6547 78.3735C53.7001 78.2513 53.7201 78.1212 53.7136 77.991V77.991C53.6059 75.8481 56.5746 74.5326 58.4235 75.6215C58.9872 75.9535 59.5682 76.258 60.1646 76.5336C62.7731 77.7391 65.6128 78.3621 68.4864 78.3594C78.1846 78.3594 86.2581 71.399 87.9894 62.198C88.015 62.0594 88.0098 61.9168 87.9742 61.7804C87.9385 61.644 87.8733 61.5171 87.7831 61.4088C87.6929 61.3004 87.58 61.2132 87.4524 61.1534C87.3247 61.0935 87.1855 61.0625 87.0445 61.0625H83.1167C82.9001 61.0627 82.69 61.1361 82.5204 61.2707C82.3508 61.4053 82.2316 61.5932 82.1821 61.804C81.4426 64.8792 79.6893 67.6159 77.2048 69.5733C74.7203 71.5306 71.6493 72.5946 68.4864 72.5938Z" fill="#3E2C80"/>
<defs>
<filter id="filter0_d_216_288" x="0.9" y="0.9" width="136.2" height="136.2" filterUnits="userSpaceOnUse" color-interpolation-filters="sRGB">
<feFlood flood-opacity="0" result="BackgroundImageFix"/>
<feColorMatrix in="SourceAlpha" type="matrix" values="0 0 0 0 0 0 0 0 0 0 0 0 0 0 0 0 0 0 127 0" result="hardAlpha"/>
<feOffset/>
<feGaussianBlur stdDeviation="6.55"/>
<feComposite in2="hardAlpha" operator="out"/>
<feColorMatrix type="matrix" values="0 0 0 0 0 0 0 0 0 0 0 0 0 0 0 0 0 0 0.25 0"/>
<feBlend mode="normal" in2="BackgroundImageFix" result="effect1_dropShadow_216_288"/>
<feBlend mode="normal" in="SourceGraphic" in2="effect1_dropShadow_216_288" result="shape"/>
</filter>
<linearGradient id="paint0_linear_216_288" x1="120.012" y1="79.163" x2="14" y2="79.163" gradientUnits="userSpaceOnUse">
<stop offset="0.560051" stop-color="white"/>
<stop offset="0.907269" stop-color="white" stop-opacity="0.2"/>
</linearGradient>
</defs>
</svg>
