<svg width="58" height="59" viewBox="0 0 58 59" fill="none" xmlns="http://www.w3.org/2000/svg">
<g opacity="0.3" filter="url(#filter0_f_188_7838)">
<rect x="8.73799" y="28.5" width="39.5109" height="24.2686" rx="12.1343" fill="url(#paint0_linear_188_7838)"/>
</g>
<rect x="7.54" y="7.40991" width="42.8035" height="42.0655" rx="5" fill="url(#paint1_linear_188_7838)"/>
<g clip-path="url(#clip0_188_7838)" filter="url(#filter1_i_188_7838)">
<path d="M15.66 41.04L17.531 34.2033C16.0221 31.5401 15.5427 28.4323 16.1808 25.4503C16.8188 22.4682 18.5316 19.812 21.0047 17.9689C23.4778 16.1258 26.5454 15.2196 29.6445 15.4165C32.7437 15.6134 35.6665 16.9002 37.8767 19.0408C40.0869 21.1814 41.4361 24.0322 41.6769 27.0701C41.9177 30.1079 41.0338 33.1291 39.1874 35.5792C37.3411 38.0293 34.6561 39.7439 31.6253 40.4085C28.5944 41.073 25.4209 40.643 22.6871 39.1971L15.66 41.04ZM23.026 36.6388L23.4605 36.8917C25.4407 38.0433 27.7534 38.5198 30.0384 38.247C32.3234 37.9743 34.4522 36.9676 36.0931 35.3839C37.7341 33.8001 38.795 31.7283 39.1105 29.4912C39.426 27.2542 38.9784 24.9775 37.8374 23.0161C36.6965 21.0547 34.9263 19.5187 32.8026 18.6474C30.679 17.7761 28.3213 17.6186 26.0969 18.1993C23.8724 18.78 21.9063 20.0663 20.5048 21.8578C19.1033 23.6493 18.3452 25.8454 18.3486 28.1038C18.3467 29.9763 18.8745 31.8127 19.8733 33.4083L20.1459 33.8492L19.0999 37.665L23.026 36.6388Z" fill="white"/>
<path fill-rule="evenodd" clip-rule="evenodd" d="M33.5738 29.8593C33.319 29.6577 33.0207 29.5158 32.7016 29.4444C32.3825 29.373 32.051 29.374 31.7323 29.4473C31.2535 29.6425 30.9441 30.3796 30.6348 30.7482C30.5695 30.8365 30.4737 30.8985 30.3652 30.9224C30.2567 30.9464 30.143 30.9307 30.0455 30.8783C28.2926 30.2047 26.8234 28.9694 25.8764 27.3732C25.7956 27.2736 25.7574 27.1471 25.7697 27.0204C25.7821 26.8937 25.8441 26.7766 25.9427 26.6939C26.2877 26.3587 26.5411 25.9436 26.6793 25.4869C26.7099 24.9832 26.5923 24.4815 26.3404 24.0416C26.1457 23.4248 25.7751 22.8756 25.2724 22.4589C25.0131 22.3444 24.7256 22.3061 24.4446 22.3484C24.1636 22.3907 23.9011 22.5119 23.6887 22.6973C23.32 23.0094 23.0274 23.3987 22.8323 23.8364C22.6373 24.2742 22.5448 24.7493 22.5617 25.2268C22.5628 25.4949 22.5975 25.7619 22.6648 26.0217C22.8359 26.6461 23.0989 27.2426 23.4456 27.7923C23.6958 28.2135 23.9687 28.6212 24.2632 29.0137C25.2205 30.303 26.4237 31.3976 27.8063 32.2369C28.5 32.6634 29.2415 33.0102 30.016 33.2704C30.8206 33.6282 31.709 33.7656 32.5868 33.6679C33.0869 33.5936 33.5607 33.3999 33.9666 33.1037C34.3725 32.8076 34.698 32.4181 34.9144 31.9695C35.0416 31.6986 35.0802 31.3956 35.0249 31.1023C34.8923 30.5025 34.0747 30.1483 33.5738 29.8593Z" fill="white"/>
</g>
<defs>
<filter id="filter0_f_188_7838" x="3.27799" y="23.04" width="50.4309" height="35.1886" filterUnits="userSpaceOnUse" color-interpolation-filters="sRGB">
<feFlood flood-opacity="0" result="BackgroundImageFix"/>
<feBlend mode="normal" in="SourceGraphic" in2="BackgroundImageFix" result="shape"/>
<feGaussianBlur stdDeviation="2.73" result="effect1_foregroundBlur_188_7838"/>
</filter>
<filter id="filter1_i_188_7838" x="15.66" y="15.39" width="26.1" height="26.15" filterUnits="userSpaceOnUse" color-interpolation-filters="sRGB">
<feFlood flood-opacity="0" result="BackgroundImageFix"/>
<feBlend mode="normal" in="SourceGraphic" in2="BackgroundImageFix" result="shape"/>
<feColorMatrix in="SourceAlpha" type="matrix" values="0 0 0 0 0 0 0 0 0 0 0 0 0 0 0 0 0 0 127 0" result="hardAlpha"/>
<feOffset dy="0.5"/>
<feGaussianBlur stdDeviation="1.25"/>
<feComposite in2="hardAlpha" operator="arithmetic" k2="-1" k3="1"/>
<feColorMatrix type="matrix" values="0 0 0 0 0 0 0 0 0 0 0 0 0 0 0 0 0 0 0.1 0"/>
<feBlend mode="normal" in2="shape" result="effect1_innerShadow_188_7838"/>
</filter>
<linearGradient id="paint0_linear_188_7838" x1="31.2241" y1="53.4923" x2="23.4259" y2="25.5242" gradientUnits="userSpaceOnUse">
<stop stop-color="#00D95F"/>
<stop offset="1" stop-color="#07FF74"/>
</linearGradient>
<linearGradient id="paint1_linear_188_7838" x1="31.9" y1="50.7299" x2="12.4605" y2="7.1554" gradientUnits="userSpaceOnUse">
<stop stop-color="#138F49"/>
<stop offset="1" stop-color="#82FBB7"/>
</linearGradient>
<clipPath id="clip0_188_7838">
<rect width="26.1" height="25.65" fill="white" transform="translate(15.66 15.39)"/>
</clipPath>
</defs>
</svg>
